# Produced with JavaView v.4.22.010
# JavaView is © 1997-2014, www.javaview.de
# by Konrad Polthier, Ulrich Reitebuch, Konstantin Poelke, Faniry Razafindrazaka
#     File Format = Wavefront OBJ
#     Geometry    = Cube_192
#     Date        = Tue May 21 21:31:23 CEST 2019
#
#     Number of Vertices = 98
#     Number of Elements = 192
#     Additional: Vertex Normals
#
# End of Header
# Vertex List
# Number of Vertexs = 98
v 0.0 0.0 0.0
v 0.0 0.25 0.0
v 0.0 0.5 0.0
v 0.0 0.75 0.0
v 0.0 1.0 0.0
v 0.25 0.0 0.0
v 0.25 0.25 0.0
v 0.25 0.5 0.0
v 0.25 0.75 0.0
v 0.25 1.0 0.0
v 0.5 0.0 0.0
v 0.5 0.25 0.0
v 0.5 0.5 0.0
v 0.5 0.75 0.0
v 0.5 1.0 0.0
v 0.75 0.0 0.0
v 0.75 0.25 0.0
v 0.75 0.5 0.0
v 0.75 0.75 0.0
v 0.75 1.0 0.0
v 1.0 0.0 0.0
v 1.0 0.25 0.0
v 1.0 0.5 0.0
v 1.0 0.75 0.0
v 1.0 1.0 0.0
v 1.0 0.0 0.25
v 1.0 0.0 0.5
v 1.0 0.0 0.75
v 1.0 0.0 1.0
v 0.75 0.0 0.25
v 0.75 0.0 0.5
v 0.75 0.0 0.75
v 0.75 0.0 1.0
v 0.5 0.0 0.25
v 0.5 0.0 0.5
v 0.5 0.0 0.75
v 0.5 0.0 1.0
v 0.25 0.0 0.25
v 0.25 0.0 0.5
v 0.25 0.0 0.75
v 0.25 0.0 1.0
v 0.0 0.0 0.25
v 0.0 0.0 0.5
v 0.0 0.0 0.75
v 0.0 0.0 1.0
v 0.0 1.0 1.0
v 0.0 0.75 1.0
v 0.0 0.5 1.0
v 0.0 0.25 1.0
v 0.25 1.0 1.0
v 0.25 0.75 1.0
v 0.25 0.5 1.0
v 0.25 0.25 1.0
v 0.5 1.0 1.0
v 0.5 0.75 1.0
v 0.5 0.5 1.0
v 0.5 0.25 1.0
v 0.75 1.0 1.0
v 0.75 0.75 1.0
v 0.75 0.5 1.0
v 0.75 0.25 1.0
v 1.0 1.0 1.0
v 1.0 0.75 1.0
v 1.0 0.5 1.0
v 1.0 0.25 1.0
v 1.0 1.0 0.75
v 1.0 1.0 0.5
v 1.0 1.0 0.25
v 0.75 1.0 0.75
v 0.75 1.0 0.5
v 0.75 1.0 0.25
v 0.5 1.0 0.75
v 0.5 1.0 0.5
v 0.5 1.0 0.25
v 0.25 1.0 0.75
v 0.25 1.0 0.5
v 0.25 1.0 0.25
v 0.0 1.0 0.75
v 0.0 1.0 0.5
v 0.0 1.0 0.25
v 1.0 0.75 0.75
v 1.0 0.5 0.75
v 1.0 0.25 0.75
v 1.0 0.75 0.5
v 1.0 0.5 0.5
v 1.0 0.25 0.5
v 1.0 0.75 0.25
v 1.0 0.5 0.25
v 1.0 0.25 0.25
v 0.0 0.75 0.25
v 0.0 0.5 0.25
v 0.0 0.25 0.25
v 0.0 0.75 0.5
v 0.0 0.5 0.5
v 0.0 0.25 0.5
v 0.0 0.75 0.75
v 0.0 0.5 0.75
v 0.0 0.25 0.75
# Vertex Normal List
# Number of Vertex Normals = 98
vn 0.6666667 0.6666667 0.33333334
vn 0.70710677 0.0 0.70710677
vn 0.70710677 0.0 0.70710677
vn 0.70710677 0.0 0.70710677
vn 0.4082483 -0.4082483 0.8164966
vn 0.0 0.70710677 0.70710677
vn 0.0 0.0 1.0
vn 0.0 0.0 1.0
vn 0.0 0.0 1.0
vn 0.0 -0.70710677 0.70710677
vn 0.0 0.70710677 0.70710677
vn 0.0 0.0 1.0
vn 0.0 0.0 1.0
vn 0.0 0.0 1.0
vn 0.0 -0.70710677 0.70710677
vn 0.0 0.70710677 0.70710677
vn 0.0 0.0 1.0
vn 0.0 0.0 1.0
vn 0.0 0.0 1.0
vn 0.0 -0.70710677 0.70710677
vn -0.4082483 0.4082483 0.8164966
vn -0.70710677 0.0 0.70710677
vn -0.70710677 0.0 0.70710677
vn -0.70710677 0.0 0.70710677
vn -0.6666667 -0.6666667 0.33333334
vn -0.70710677 0.70710677 0.0
vn -0.70710677 0.70710677 0.0
vn -0.70710677 0.70710677 0.0
vn -0.6666667 0.6666667 -0.33333334
vn 0.0 1.0 0.0
vn 0.0 1.0 0.0
vn 0.0 1.0 0.0
vn 0.0 0.70710677 -0.70710677
vn 0.0 1.0 0.0
vn 0.0 1.0 0.0
vn 0.0 1.0 0.0
vn 0.0 0.70710677 -0.70710677
vn 0.0 1.0 0.0
vn 0.0 1.0 0.0
vn 0.0 1.0 0.0
vn 0.0 0.70710677 -0.70710677
vn 0.70710677 0.70710677 0.0
vn 0.70710677 0.70710677 0.0
vn 0.70710677 0.70710677 0.0
vn 0.4082483 0.4082483 -0.8164966
vn 0.6666667 -0.6666667 -0.33333334
vn 0.70710677 0.0 -0.70710677
vn 0.70710677 0.0 -0.70710677
vn 0.70710677 0.0 -0.70710677
vn 0.0 -0.70710677 -0.70710677
vn 0.0 0.0 -1.0
vn 0.0 0.0 -1.0
vn 0.0 0.0 -1.0
vn 0.0 -0.70710677 -0.70710677
vn 0.0 0.0 -1.0
vn 0.0 0.0 -1.0
vn 0.0 0.0 -1.0
vn 0.0 -0.70710677 -0.70710677
vn 0.0 0.0 -1.0
vn 0.0 0.0 -1.0
vn 0.0 0.0 -1.0
vn -0.4082483 -0.4082483 -0.8164966
vn -0.70710677 0.0 -0.70710677
vn -0.70710677 0.0 -0.70710677
vn -0.70710677 0.0 -0.70710677
vn -0.70710677 -0.70710677 0.0
vn -0.70710677 -0.70710677 0.0
vn -0.70710677 -0.70710677 0.0
vn 0.0 -1.0 0.0
vn 0.0 -1.0 0.0
vn 0.0 -1.0 0.0
vn 0.0 -1.0 0.0
vn 0.0 -1.0 0.0
vn 0.0 -1.0 0.0
vn 0.0 -1.0 0.0
vn 0.0 -1.0 0.0
vn 0.0 -1.0 0.0
vn 0.70710677 -0.70710677 0.0
vn 0.70710677 -0.70710677 0.0
vn 0.70710677 -0.70710677 0.0
vn -1.0 0.0 0.0
vn -1.0 0.0 0.0
vn -1.0 0.0 0.0
vn -1.0 0.0 0.0
vn -1.0 0.0 0.0
vn -1.0 0.0 0.0
vn -1.0 0.0 0.0
vn -1.0 0.0 0.0
vn -1.0 0.0 0.0
vn 1.0 0.0 0.0
vn 1.0 0.0 0.0
vn 1.0 0.0 0.0
vn 1.0 0.0 0.0
vn 1.0 0.0 0.0
vn 1.0 0.0 0.0
vn 1.0 0.0 0.0
vn 1.0 0.0 0.0
vn 1.0 0.0 0.0
# Face List
# Number of Faces = 192
f  1//1 6//6 2//2
f  2//2 6//6 7//7
f  2//2 7//7 3//3
f  3//3 7//7 8//8
f  3//3 8//8 4//4
f  4//4 8//8 9//9
f  4//4 9//9 5//5
f  5//5 9//9 10//10
f  6//6 11//11 7//7
f  7//7 11//11 12//12
f  7//7 12//12 8//8
f  8//8 12//12 13//13
f  8//8 13//13 9//9
f  9//9 13//13 14//14
f  9//9 14//14 10//10
f  10//10 14//14 15//15
f  11//11 16//16 12//12
f  12//12 16//16 17//17
f  12//12 17//17 13//13
f  13//13 17//17 18//18
f  13//13 18//18 14//14
f  14//14 18//18 19//19
f  14//14 19//19 15//15
f  15//15 19//19 20//20
f  16//16 21//21 17//17
f  17//17 21//21 22//22
f  17//17 22//22 18//18
f  18//18 22//22 23//23
f  18//18 23//23 19//19
f  19//19 23//23 24//24
f  19//19 24//24 20//20
f  20//20 24//24 25//25
f  21//21 16//16 26//26
f  26//26 16//16 30//30
f  26//26 30//30 27//27
f  27//27 30//30 31//31
f  27//27 31//31 28//28
f  28//28 31//31 32//32
f  28//28 32//32 29//29
f  29//29 32//32 33//33
f  16//16 11//11 30//30
f  30//30 11//11 34//34
f  30//30 34//34 31//31
f  31//31 34//34 35//35
f  31//31 35//35 32//32
f  32//32 35//35 36//36
f  32//32 36//36 33//33
f  33//33 36//36 37//37
f  11//11 6//6 34//34
f  34//34 6//6 38//38
f  34//34 38//38 35//35
f  35//35 38//38 39//39
f  35//35 39//39 36//36
f  36//36 39//39 40//40
f  36//36 40//40 37//37
f  37//37 40//40 41//41
f  6//6 1//1 38//38
f  38//38 1//1 42//42
f  38//38 42//42 39//39
f  39//39 42//42 43//43
f  39//39 43//43 40//40
f  40//40 43//43 44//44
f  40//40 44//44 41//41
f  41//41 44//44 45//45
f  46//46 50//50 47//47
f  47//47 50//50 51//51
f  47//47 51//51 48//48
f  48//48 51//51 52//52
f  48//48 52//52 49//49
f  49//49 52//52 53//53
f  49//49 53//53 45//45
f  45//45 53//53 41//41
f  50//50 54//54 51//51
f  51//51 54//54 55//55
f  51//51 55//55 52//52
f  52//52 55//55 56//56
f  52//52 56//56 53//53
f  53//53 56//56 57//57
f  53//53 57//57 41//41
f  41//41 57//57 37//37
f  54//54 58//58 55//55
f  55//55 58//58 59//59
f  55//55 59//59 56//56
f  56//56 59//59 60//60
f  56//56 60//60 57//57
f  57//57 60//60 61//61
f  57//57 61//61 37//37
f  37//37 61//61 33//33
f  58//58 62//62 59//59
f  59//59 62//62 63//63
f  59//59 63//63 60//60
f  60//60 63//63 64//64
f  60//60 64//64 61//61
f  61//61 64//64 65//65
f  61//61 65//65 33//33
f  33//33 65//65 29//29
f  62//62 58//58 66//66
f  66//66 58//58 69//69
f  66//66 69//69 67//67
f  67//67 69//69 70//70
f  67//67 70//70 68//68
f  68//68 70//70 71//71
f  68//68 71//71 25//25
f  25//25 71//71 20//20
f  58//58 54//54 69//69
f  69//69 54//54 72//72
f  69//69 72//72 70//70
f  70//70 72//72 73//73
f  70//70 73//73 71//71
f  71//71 73//73 74//74
f  71//71 74//74 20//20
f  20//20 74//74 15//15
f  54//54 50//50 72//72
f  72//72 50//50 75//75
f  72//72 75//75 73//73
f  73//73 75//75 76//76
f  73//73 76//76 74//74
f  74//74 76//76 77//77
f  74//74 77//77 15//15
f  15//15 77//77 10//10
f  50//50 46//46 75//75
f  75//75 46//46 78//78
f  75//75 78//78 76//76
f  76//76 78//78 79//79
f  76//76 79//79 77//77
f  77//77 79//79 80//80
f  77//77 80//80 10//10
f  10//10 80//80 5//5
f  62//62 66//66 63//63
f  63//63 66//66 81//81
f  63//63 81//81 64//64
f  64//64 81//81 82//82
f  64//64 82//82 65//65
f  65//65 82//82 83//83
f  65//65 83//83 29//29
f  29//29 83//83 28//28
f  66//66 67//67 81//81
f  81//81 67//67 84//84
f  81//81 84//84 82//82
f  82//82 84//84 85//85
f  82//82 85//85 83//83
f  83//83 85//85 86//86
f  83//83 86//86 28//28
f  28//28 86//86 27//27
f  67//67 68//68 84//84
f  84//84 68//68 87//87
f  84//84 87//87 85//85
f  85//85 87//87 88//88
f  85//85 88//88 86//86
f  86//86 88//88 89//89
f  86//86 89//89 27//27
f  27//27 89//89 26//26
f  68//68 25//25 87//87
f  87//87 25//25 24//24
f  87//87 24//24 88//88
f  88//88 24//24 23//23
f  88//88 23//23 89//89
f  89//89 23//23 22//22
f  89//89 22//22 26//26
f  26//26 22//22 21//21
f  5//5 80//80 4//4
f  4//4 80//80 90//90
f  4//4 90//90 3//3
f  3//3 90//90 91//91
f  3//3 91//91 2//2
f  2//2 91//91 92//92
f  2//2 92//92 1//1
f  1//1 92//92 42//42
f  80//80 79//79 90//90
f  90//90 79//79 93//93
f  90//90 93//93 91//91
f  91//91 93//93 94//94
f  91//91 94//94 92//92
f  92//92 94//94 95//95
f  92//92 95//95 42//42
f  42//42 95//95 43//43
f  79//79 78//78 93//93
f  93//93 78//78 96//96
f  93//93 96//96 94//94
f  94//94 96//96 97//97
f  94//94 97//97 95//95
f  95//95 97//97 98//98
f  95//95 98//98 43//43
f  43//43 98//98 44//44
f  78//78 46//46 96//96
f  96//96 46//46 47//47
f  96//96 47//47 97//97
f  97//97 47//47 48//48
f  97//97 48//48 98//98
f  98//98 48//48 49//49
f  98//98 49//49 44//44
f  44//44 49//49 45//45
