# Blender v2.79 (sub 0) OBJ File: 'Hangar_Simple.blend'
# www.blender.org
mtllib Hangar_Simple.mtl
o SurfCurve_SurfCurve.002
v 2.506409 1.462516 1.276547
v 1.801073 1.462516 1.276547
v 1.095737 1.462515 1.276546
v 0.390401 1.462515 1.276547
v -0.314934 1.462516 1.276547
v -1.020270 1.462516 1.276546
v -1.725606 1.462516 1.276546
v -2.430939 1.462515 1.276545
v 2.506409 1.563504 1.095801
v 1.801073 1.563504 1.095801
v 1.095737 1.563504 1.095801
v 0.390401 1.563504 1.095801
v -0.314935 1.563504 1.095801
v -1.020270 1.563504 1.095801
v -1.725606 1.563504 1.095801
v -2.430939 1.563503 1.095799
v 2.506409 1.650065 0.915370
v 1.801073 1.650065 0.915370
v 1.095737 1.650065 0.915370
v 0.390401 1.650065 0.915370
v -0.314935 1.650065 0.915370
v -1.020271 1.650065 0.915370
v -1.725606 1.650065 0.915370
v -2.430939 1.650064 0.915369
v 2.506409 1.722199 0.735206
v 1.801073 1.722199 0.735206
v 1.095737 1.722199 0.735206
v 0.390401 1.722199 0.735206
v -0.314935 1.722199 0.735205
v -1.020271 1.722199 0.735205
v -1.725606 1.722199 0.735205
v -2.430938 1.722198 0.735204
v 2.506409 1.779907 0.555259
v 1.801073 1.779907 0.555259
v 1.095737 1.779907 0.555259
v 0.390401 1.779907 0.555259
v -0.314935 1.779907 0.555259
v -1.020271 1.779907 0.555259
v -1.725606 1.779907 0.555258
v -2.430939 1.779906 0.555257
v 2.506409 1.823188 0.375481
v 1.801073 1.823188 0.375482
v 1.095737 1.823187 0.375481
v 0.390401 1.823188 0.375482
v -0.314935 1.823188 0.375482
v -1.020271 1.823188 0.375481
v -1.725606 1.823188 0.375481
v -2.430940 1.823187 0.375480
v 2.506409 1.852041 0.195825
v 1.801073 1.852041 0.195825
v 1.095737 1.852041 0.195825
v 0.390401 1.852041 0.195825
v -0.314935 1.852041 0.195825
v -1.020270 1.852042 0.195825
v -1.725606 1.852041 0.195825
v -2.430939 1.852041 0.195823
v 2.506409 1.866468 0.016241
v 1.801073 1.866468 0.016241
v 1.095737 1.866468 0.016241
v 0.390401 1.866468 0.016241
v -0.314935 1.866468 0.016241
v -1.020270 1.866468 0.016241
v -1.725606 1.866468 0.016241
v -2.430939 1.866467 0.016240
v 2.506409 1.866468 -0.163319
v 1.801073 1.866468 -0.163319
v 1.095737 1.866468 -0.163319
v 0.390401 1.866468 -0.163319
v -0.314935 1.866469 -0.163319
v -1.020271 1.866469 -0.163319
v -1.725606 1.866469 -0.163319
v -2.430939 1.866467 -0.163321
v 2.506409 1.852042 -0.342902
v 1.801073 1.852042 -0.342902
v 1.095737 1.852042 -0.342902
v 0.390401 1.852042 -0.342902
v -0.314935 1.852042 -0.342903
v -1.020271 1.852042 -0.342903
v -1.725607 1.852042 -0.342903
v -2.430939 1.852041 -0.342904
v 2.506409 1.823189 -0.522559
v 1.801073 1.823189 -0.522559
v 1.095737 1.823188 -0.522559
v 0.390401 1.823189 -0.522559
v -0.314935 1.823188 -0.522559
v -1.020271 1.823188 -0.522559
v -1.725606 1.823188 -0.522559
v -2.430940 1.823188 -0.522561
v 2.506409 1.779907 -0.702337
v 1.801073 1.779907 -0.702337
v 1.095737 1.779907 -0.702337
v 0.390401 1.779907 -0.702337
v -0.314934 1.779908 -0.702338
v -1.020271 1.779908 -0.702337
v -1.725606 1.779907 -0.702338
v -2.430939 1.779907 -0.702338
v 2.506409 1.722200 -0.882284
v 1.801073 1.722200 -0.882284
v 1.095737 1.722200 -0.882284
v 0.390401 1.722200 -0.882284
v -0.314935 1.722200 -0.882284
v -1.020271 1.722200 -0.882284
v -1.725606 1.722201 -0.882284
v -2.430938 1.722200 -0.882285
v 2.506409 1.650066 -1.062449
v 1.801073 1.650066 -1.062449
v 1.095737 1.650066 -1.062449
v 0.390401 1.650066 -1.062449
v -0.314934 1.650066 -1.062448
v -1.020271 1.650066 -1.062448
v -1.725606 1.650066 -1.062448
v -2.430938 1.650065 -1.062449
v 2.506409 1.563505 -1.242879
v 1.801073 1.563505 -1.242879
v 1.095737 1.563505 -1.242879
v 0.390401 1.563505 -1.242879
v -0.314935 1.563505 -1.242879
v -1.020271 1.563505 -1.242879
v -1.725606 1.563505 -1.242879
v -2.430938 1.563504 -1.242880
v 2.506409 1.462517 -1.423625
v 1.801073 1.462517 -1.423625
v 1.095737 1.462517 -1.423625
v 0.390401 1.462517 -1.423625
v -0.314935 1.462517 -1.423625
v -1.020271 1.462517 -1.423625
v -1.725606 1.462517 -1.423625
v -2.430939 1.462517 -1.423626
vn 0.0000 -0.8730 -0.4877
vn 0.0000 -0.8877 -0.4604
vn 0.0000 -0.9155 -0.4023
vn 0.0000 -0.9409 -0.3387
vn 0.0000 -0.9629 -0.2699
vn 0.0000 -0.9805 -0.1964
vn 0.0000 -0.9928 -0.1194
vn 0.0000 -0.9992 -0.0401
vn 0.0000 -0.9992 -0.0400
vn 0.0000 -0.9992 0.0400
vn 0.0000 -0.9928 0.1194
vn 0.0000 -0.9805 0.1964
vn 0.0000 -0.9629 0.2699
vn 0.0000 -0.9409 0.3387
vn 0.0000 -0.9155 0.4023
vn 0.0000 -0.8877 0.4604
vn 0.0000 -0.8730 0.4877
usemtl None
s 1
f 2//1 10//2 9//2 1//1
f 3//1 11//2 10//2 2//1
f 4//1 12//2 11//2 3//1
f 5//1 13//2 12//2 4//1
f 6//1 14//2 13//2 5//1
f 7//1 15//2 14//2 6//1
f 8//1 16//2 15//2 7//1
f 10//2 18//3 17//3 9//2
f 11//2 19//3 18//3 10//2
f 12//2 20//3 19//3 11//2
f 13//2 21//3 20//3 12//2
f 14//2 22//3 21//3 13//2
f 15//2 23//3 22//3 14//2
f 16//2 24//3 23//3 15//2
f 18//3 26//4 25//4 17//3
f 19//3 27//4 26//4 18//3
f 20//3 28//4 27//4 19//3
f 21//3 29//4 28//4 20//3
f 22//3 30//4 29//4 21//3
f 23//3 31//4 30//4 22//3
f 24//3 32//4 31//4 23//3
f 26//4 34//5 33//5 25//4
f 27//4 35//5 34//5 26//4
f 28//4 36//5 35//5 27//4
f 29//4 37//5 36//5 28//4
f 30//4 38//5 37//5 29//4
f 31//4 39//5 38//5 30//4
f 32//4 40//5 39//5 31//4
f 34//5 42//6 41//6 33//5
f 35//5 43//6 42//6 34//5
f 36//5 44//6 43//6 35//5
f 37//5 45//6 44//6 36//5
f 38//5 46//6 45//6 37//5
f 39//5 47//6 46//6 38//5
f 40//5 48//6 47//6 39//5
f 42//6 50//7 49//7 41//6
f 43//6 51//7 50//7 42//6
f 44//6 52//7 51//7 43//6
f 45//6 53//7 52//7 44//6
f 46//6 54//7 53//7 45//6
f 47//6 55//7 54//7 46//6
f 48//6 56//7 55//7 47//6
f 50//7 58//8 57//9 49//7
f 51//7 59//8 58//8 50//7
f 52//7 60//8 59//8 51//7
f 53//7 61//8 60//8 52//7
f 54//7 62//8 61//8 53//7
f 55//7 63//8 62//8 54//7
f 56//7 64//8 63//8 55//7
f 58//8 66//10 65//10 57//9
f 59//8 67//10 66//10 58//8
f 60//8 68//10 67//10 59//8
f 61//8 69//10 68//10 60//8
f 62//8 70//10 69//10 61//8
f 63//8 71//10 70//10 62//8
f 64//8 72//10 71//10 63//8
f 66//10 74//11 73//11 65//10
f 67//10 75//11 74//11 66//10
f 68//10 76//11 75//11 67//10
f 69//10 77//11 76//11 68//10
f 70//10 78//11 77//11 69//10
f 71//10 79//11 78//11 70//10
f 72//10 80//11 79//11 71//10
f 74//11 82//12 81//12 73//11
f 75//11 83//12 82//12 74//11
f 76//11 84//12 83//12 75//11
f 77//11 85//12 84//12 76//11
f 78//11 86//12 85//12 77//11
f 79//11 87//12 86//12 78//11
f 80//11 88//12 87//12 79//11
f 82//12 90//13 89//13 81//12
f 83//12 91//13 90//13 82//12
f 84//12 92//13 91//13 83//12
f 85//12 93//13 92//13 84//12
f 86//12 94//13 93//13 85//12
f 87//12 95//13 94//13 86//12
f 88//12 96//13 95//13 87//12
f 90//13 98//14 97//14 89//13
f 91//13 99//14 98//14 90//13
f 92//13 100//14 99//14 91//13
f 93//13 101//14 100//14 92//13
f 94//13 102//14 101//14 93//13
f 95//13 103//14 102//14 94//13
f 96//13 104//14 103//14 95//13
f 98//14 106//15 105//15 97//14
f 99//14 107//15 106//15 98//14
f 100//14 108//15 107//15 99//14
f 101//14 109//15 108//15 100//14
f 102//14 110//15 109//15 101//14
f 103//14 111//15 110//15 102//14
f 104//14 112//15 111//15 103//14
f 106//15 114//16 113//16 105//15
f 107//15 115//16 114//16 106//15
f 108//15 116//16 115//16 107//15
f 109//15 117//16 116//16 108//15
f 110//15 118//16 117//16 109//15
f 111//15 119//16 118//16 110//15
f 112//15 120//16 119//16 111//15
f 114//16 122//17 121//17 113//16
f 115//16 123//17 122//17 114//16
f 116//16 124//17 123//17 115//16
f 117//16 125//17 124//17 116//16
f 118//16 126//17 125//17 117//16
f 119//16 127//17 126//17 118//16
f 120//16 128//17 127//17 119//16
o Plane
v -2.400295 0.015455 1.287045
v 2.452037 0.015455 1.287045
v -2.400295 0.015455 -1.442311
v 2.452037 0.015455 -1.442311
vn 0.0000 1.0000 0.0000
usemtl None
s off
f 129//18 130//18 132//18 131//18
o Plane.001_Plane.002
v -2.400295 1.472318 1.275753
v 2.452037 1.472318 1.275753
v -2.400295 0.001640 1.275753
v 2.452037 0.001640 1.275753
vn 0.0000 0.0000 1.0000
usemtl None
s off
f 133//19 135//19 136//19 134//19
o Plane.002_Plane.003
v -2.400295 1.472318 -1.438196
v 2.452037 1.472318 -1.438196
v -2.400295 0.001640 -1.438196
v 2.452037 0.001640 -1.438196
vn 0.0000 0.0000 1.0000
usemtl None
s off
f 137//20 139//20 140//20 138//20
o Plane.003_Plane.004
v -2.378074 1.475414 1.281658
v -2.378074 -0.059940 1.281658
v -2.378074 1.475414 -1.447698
v -2.378074 -0.059940 -1.447698
vn 1.0000 0.0000 0.0000
usemtl None
s off
f 141//21 142//21 144//21 143//21
