# Blender v2.79 (sub 0) OBJ File: 'Hangar_Simple.blend'
# www.blender.org
mtllib Hangar2.mtl
o SurfCurve_CUSurfCurve.002
v 2.506409 1.462516 1.276547
v 1.801073 1.462516 1.276547
v 1.095737 1.462515 1.276546
v 0.390401 1.462515 1.276547
v -0.314934 1.462516 1.276547
v -1.020270 1.462516 1.276546
v -1.725606 1.462516 1.276546
v -2.430939 1.462515 1.276545
v 2.506409 1.563504 1.095801
v 1.801073 1.563504 1.095801
v 1.095737 1.563504 1.095801
v 0.390401 1.563504 1.095801
v -0.314935 1.563504 1.095801
v -1.020270 1.563504 1.095801
v -1.725606 1.563504 1.095801
v -2.430939 1.563503 1.095799
v 2.506409 1.650065 0.915370
v 1.801073 1.650065 0.915370
v 1.095737 1.650065 0.915370
v 0.390401 1.650065 0.915370
v -0.314935 1.650065 0.915370
v -1.020271 1.650065 0.915370
v -1.725606 1.650065 0.915370
v -2.430939 1.650064 0.915369
v 2.506409 1.722199 0.735206
v 1.801073 1.722199 0.735206
v 1.095737 1.722199 0.735206
v 0.390401 1.722199 0.735206
v -0.314935 1.722199 0.735205
v -1.020271 1.722199 0.735205
v -1.725606 1.722199 0.735205
v -2.430938 1.722198 0.735204
v 2.506409 1.779907 0.555259
v 1.801073 1.779907 0.555259
v 1.095737 1.779907 0.555259
v 0.390401 1.779907 0.555259
v -0.314935 1.779907 0.555259
v -1.020271 1.779907 0.555259
v -1.725606 1.779907 0.555258
v -2.430939 1.779906 0.555257
v 2.506409 1.823188 0.375481
v 1.801073 1.823188 0.375482
v 1.095737 1.823187 0.375481
v 0.390401 1.823188 0.375482
v -0.314935 1.823188 0.375482
v -1.020271 1.823188 0.375481
v -1.725606 1.823188 0.375481
v -2.430940 1.823187 0.375480
v 2.506409 1.852041 0.195825
v 1.801073 1.852041 0.195825
v 1.095737 1.852041 0.195825
v 0.390401 1.852041 0.195825
v -0.314935 1.852041 0.195825
v -1.020270 1.852042 0.195825
v -1.725606 1.852041 0.195825
v -2.430939 1.852041 0.195823
v 2.506409 1.866468 0.016241
v 1.801073 1.866468 0.016241
v 1.095737 1.866468 0.016241
v 0.390401 1.866468 0.016241
v -0.314935 1.866468 0.016241
v -1.020270 1.866468 0.016241
v -1.725606 1.866468 0.016241
v -2.430939 1.866467 0.016240
v 2.506409 1.866468 -0.163319
v 1.801073 1.866468 -0.163319
v 1.095737 1.866468 -0.163319
v 0.390401 1.866468 -0.163319
v -0.314935 1.866469 -0.163319
v -1.020271 1.866469 -0.163319
v -1.725606 1.866469 -0.163319
v -2.430939 1.866467 -0.163321
v 2.506409 1.852042 -0.342902
v 1.801073 1.852042 -0.342902
v 1.095737 1.852042 -0.342902
v 0.390401 1.852042 -0.342902
v -0.314935 1.852042 -0.342903
v -1.020271 1.852042 -0.342903
v -1.725607 1.852042 -0.342903
v -2.430939 1.852041 -0.342904
v 2.506409 1.823189 -0.522559
v 1.801073 1.823189 -0.522559
v 1.095737 1.823188 -0.522559
v 0.390401 1.823189 -0.522559
v -0.314935 1.823188 -0.522559
v -1.020271 1.823188 -0.522559
v -1.725606 1.823188 -0.522559
v -2.430940 1.823188 -0.522561
v 2.506409 1.779907 -0.702337
v 1.801073 1.779907 -0.702337
v 1.095737 1.779907 -0.702337
v 0.390401 1.779907 -0.702337
v -0.314934 1.779908 -0.702338
v -1.020271 1.779908 -0.702337
v -1.725606 1.779907 -0.702338
v -2.430939 1.779907 -0.702338
v 2.506409 1.722200 -0.882284
v 1.801073 1.722200 -0.882284
v 1.095737 1.722200 -0.882284
v 0.390401 1.722200 -0.882284
v -0.314935 1.722200 -0.882284
v -1.020271 1.722200 -0.882284
v -1.725606 1.722201 -0.882284
v -2.430938 1.722200 -0.882285
v 2.506409 1.650066 -1.062449
v 1.801073 1.650066 -1.062449
v 1.095737 1.650066 -1.062449
v 0.390401 1.650066 -1.062449
v -0.314934 1.650066 -1.062448
v -1.020271 1.650066 -1.062448
v -1.725606 1.650066 -1.062448
v -2.430938 1.650065 -1.062449
v 2.506409 1.563505 -1.242879
v 1.801073 1.563505 -1.242879
v 1.095737 1.563505 -1.242879
v 0.390401 1.563505 -1.242879
v -0.314935 1.563505 -1.242879
v -1.020271 1.563505 -1.242879
v -1.725606 1.563505 -1.242879
v -2.430938 1.563504 -1.242880
v 2.506409 1.462517 -1.423625
v 1.801073 1.462517 -1.423625
v 1.095737 1.462517 -1.423625
v 0.390401 1.462517 -1.423625
v -0.314935 1.462517 -1.423625
v -1.020271 1.462517 -1.423625
v -1.725606 1.462517 -1.423625
v -2.430939 1.462517 -1.423626
vt 0.108736 0.857142
vt 0.000000 0.999999
vt 0.000000 0.857142
vt 0.108737 0.714285
vt 0.000000 0.714285
vt 0.108737 0.571428
vt 0.000000 0.571428
vt 0.108737 0.428571
vt 0.000000 0.428571
vt 0.108737 0.285714
vt 0.000001 0.285714
vt 0.108737 0.142857
vt 0.000000 0.142857
vt 0.108737 0.000000
vt 0.000000 0.000000
vt 0.204585 0.999999
vt 0.108736 0.999999
vt 0.204585 0.714285
vt 0.204585 0.571428
vt 0.204585 0.428571
vt 0.204585 0.142857
vt 0.204585 0.000000
vt 0.287551 0.857142
vt 0.204585 0.857142
vt 0.287550 0.714285
vt 0.287551 0.571428
vt 0.287551 0.285714
vt 0.204585 0.285714
vt 0.287550 0.000000
vt 0.357638 0.857142
vt 0.287550 0.999999
vt 0.357638 0.714285
vt 0.287551 0.428571
vt 0.357639 0.571428
vt 0.357639 0.428571
vt 0.287551 0.142857
vt 0.357639 0.285714
vt 0.357639 0.142857
vt 0.414854 0.999999
vt 0.357639 0.999999
vt 0.414854 0.714285
vt 0.414854 0.428571
vt 0.414854 0.285714
vt 0.414854 0.142857
vt 0.357638 0.000000
vt 0.459201 0.857142
vt 0.414854 0.857142
vt 0.459202 0.714285
vt 0.459202 0.571428
vt 0.414854 0.571428
vt 0.459201 0.428571
vt 0.459202 0.285714
vt 0.459202 0.142857
vt 0.459201 0.000000
vt 0.414854 0.000000
vt 0.490686 0.857142
vt 0.459202 0.999999
vt 0.490686 0.714285
vt 0.490686 0.571428
vt 0.490686 0.428571
vt 0.490686 0.285714
vt 0.490686 0.142857
vt 0.490686 0.000000
vt 0.509314 0.857142
vt 0.490686 0.999999
vt 0.509314 0.714285
vt 0.509313 0.571428
vt 0.509314 0.428571
vt 0.509314 0.285714
vt 0.509314 0.142857
vt 0.968515 0.142857
vt 0.999999 0.000000
vt 0.999999 0.142857
vt 0.999999 0.285714
vt 0.968515 0.428572
vt 1.000000 0.428572
vt 0.968515 0.571429
vt 1.000000 0.571429
vt 0.968515 0.714286
vt 1.000000 0.714286
vt 1.000000 0.857143
vt 0.999999 1.000000
vt 0.968515 0.857143
vt 0.924168 0.142857
vt 0.968514 0.000000
vt 0.924167 0.285714
vt 0.968514 0.285714
vt 0.924168 0.428572
vt 0.924168 0.571429
vt 0.924168 0.714286
vt 0.924168 0.857143
vt 0.968515 1.000000
vt 0.866952 0.142857
vt 0.924168 0.000000
vt 0.866952 0.285714
vt 0.866953 0.428572
vt 0.866952 0.571429
vt 0.866953 0.714286
vt 0.866952 0.857143
vt 0.866952 1.000000
vt 0.924167 1.000000
vt 0.796864 0.142857
vt 0.866952 0.000000
vt 0.796864 0.285714
vt 0.796865 0.428572
vt 0.796865 0.571429
vt 0.796865 0.714286
vt 0.796864 1.000000
vt 0.713899 0.142857
vt 0.796864 0.000000
vt 0.713899 0.285714
vt 0.713900 0.428572
vt 0.713899 0.571429
vt 0.713899 0.714286
vt 0.713899 0.857143
vt 0.796865 0.857143
vt 0.618051 0.142857
vt 0.713899 0.000000
vt 0.618050 0.285714
vt 0.618051 0.428572
vt 0.618051 0.571429
vt 0.618051 0.714286
vt 0.713899 1.000000
vt 0.618051 0.857143
vt 0.509314 0.000000
vt 0.618050 0.000000
vt 0.509314 0.142857
vt 0.509314 0.285714
vt 0.509315 0.428572
vt 0.509315 0.571429
vt 0.509315 0.857143
vt 0.618050 1.000000
vt 0.509313 0.999999
vt 0.509313 0.000000
vt 0.509315 0.714286
vt 0.509314 1.000000
vn 0.0000 -0.8877 -0.4604
vn 0.0000 -0.8730 -0.4877
vn 0.0000 -0.9155 -0.4023
vn 0.0000 -0.9409 -0.3387
vn 0.0000 -0.9629 -0.2699
vn 0.0000 -0.9805 -0.1964
vn 0.0000 -0.9928 -0.1194
vn 0.0000 -0.9992 -0.0401
vn 0.0000 -0.9992 -0.0400
vn 0.0000 -0.9992 0.0400
vn 0.0000 -0.9928 0.1194
vn 0.0000 -0.9805 0.1964
vn 0.0000 -0.9629 0.2699
vn 0.0000 -0.9409 0.3387
vn 0.0000 -0.9155 0.4023
vn 0.0000 -0.8877 0.4604
vn 0.0000 -0.8730 0.4877
usemtl Material.001
s 1
f 10/1/1 1/2/2 2/3/2
f 11/4/1 2/3/2 3/5/2
f 12/6/1 3/5/2 4/7/2
f 13/8/1 4/7/2 5/9/2
f 14/10/1 5/9/2 6/11/2
f 15/12/1 6/11/2 7/13/2
f 16/14/1 7/13/2 8/15/2
f 10/1/1 17/16/3 9/17/1
f 19/18/3 10/1/1 11/4/1
f 20/19/3 11/4/1 12/6/1
f 21/20/3 12/6/1 13/8/1
f 14/10/1 21/20/3 13/8/1
f 23/21/3 14/10/1 15/12/1
f 24/22/3 15/12/1 16/14/1
f 26/23/4 17/16/3 18/24/3
f 27/25/4 18/24/3 19/18/3
f 20/19/3 27/25/4 19/18/3
f 21/20/3 28/26/4 20/19/3
f 30/27/4 21/20/3 22/28/3
f 23/21/3 30/27/4 22/28/3
f 32/29/4 23/21/3 24/22/3
f 34/30/5 25/31/4 26/23/4
f 27/25/4 34/30/5 26/23/4
f 28/26/4 35/32/5 27/25/4
f 29/33/4 36/34/5 28/26/4
f 30/27/4 37/35/5 29/33/4
f 31/36/4 38/37/5 30/27/4
f 32/29/4 39/38/5 31/36/4
f 34/30/5 41/39/6 33/40/5
f 43/41/6 34/30/5 35/32/5
f 36/34/5 43/41/6 35/32/5
f 45/42/6 36/34/5 37/35/5
f 46/43/6 37/35/5 38/37/5
f 47/44/6 38/37/5 39/38/5
f 40/45/5 47/44/6 39/38/5
f 50/46/7 41/39/6 42/47/6
f 51/48/7 42/47/6 43/41/6
f 52/49/7 43/41/6 44/50/6
f 53/51/7 44/50/6 45/42/6
f 54/52/7 45/42/6 46/43/6
f 55/53/7 46/43/6 47/44/6
f 56/54/7 47/44/6 48/55/6
f 58/56/8 49/57/7 50/46/7
f 59/58/8 50/46/7 51/48/7
f 60/59/9 51/48/7 52/49/7
f 61/60/8 52/49/7 53/51/7
f 62/61/8 53/51/7 54/52/7
f 63/62/8 54/52/7 55/53/7
f 64/63/9 55/53/7 56/54/7
f 66/64/10 57/65/8 58/56/8
f 67/66/10 58/56/8 59/58/8
f 68/67/10 59/58/8 60/59/9
f 69/68/10 60/59/9 61/60/8
f 62/61/8 69/68/10 61/60/8
f 63/62/8 70/69/10 62/61/8
f 64/63/9 71/70/10 63/62/8
f 74/71/11 65/72/10 66/73/10
f 67/74/10 74/71/11 66/73/10
f 76/75/11 67/74/10 68/76/10
f 77/77/11 68/76/10 69/78/10
f 78/79/11 69/78/10 70/80/10
f 71/81/10 78/79/11 70/80/10
f 72/82/10 79/83/11 71/81/10
f 82/84/12 73/85/11 74/71/11
f 83/86/12 74/71/11 75/87/11
f 84/88/12 75/87/11 76/75/11
f 85/89/12 76/75/11 77/77/11
f 86/90/12 77/77/11 78/79/11
f 87/91/12 78/79/11 79/83/11
f 80/92/11 87/91/12 79/83/11
f 90/93/13 81/94/12 82/84/12
f 91/95/13 82/84/12 83/86/12
f 92/96/13 83/86/12 84/88/12
f 93/97/13 84/88/12 85/89/12
f 94/98/13 85/89/12 86/90/12
f 95/99/13 86/90/12 87/91/12
f 96/100/13 87/91/12 88/101/12
f 98/102/14 89/103/13 90/93/13
f 91/95/13 98/102/14 90/93/13
f 92/96/13 99/104/14 91/95/13
f 93/97/13 100/105/14 92/96/13
f 94/98/13 101/106/14 93/97/13
f 95/99/13 102/107/14 94/98/13
f 104/108/14 95/99/13 96/100/13
f 106/109/15 97/110/14 98/102/14
f 107/111/15 98/102/14 99/104/14
f 108/112/15 99/104/14 100/105/14
f 109/113/15 100/105/14 101/106/14
f 110/114/15 101/106/14 102/107/14
f 111/115/15 102/107/14 103/116/14
f 104/108/14 111/115/15 103/116/14
f 114/117/16 105/118/15 106/109/15
f 107/111/15 114/117/16 106/109/15
f 108/112/15 115/119/16 107/111/15
f 109/113/15 116/120/16 108/112/15
f 110/114/15 117/121/16 109/113/15
f 111/115/15 118/122/16 110/114/15
f 112/123/15 119/124/16 111/115/15
f 114/117/16 121/125/17 113/126/16
f 115/119/16 122/127/17 114/117/16
f 116/120/16 123/128/17 115/119/16
f 117/121/16 124/129/17 116/120/16
f 118/122/16 125/130/17 117/121/16
f 127/131/17 118/122/16 119/124/16
f 120/132/16 127/131/17 119/124/16
f 10/1/1 9/17/1 1/2/2
f 11/4/1 10/1/1 2/3/2
f 12/6/1 11/4/1 3/5/2
f 13/8/1 12/6/1 4/7/2
f 14/10/1 13/8/1 5/9/2
f 15/12/1 14/10/1 6/11/2
f 16/14/1 15/12/1 7/13/2
f 10/1/1 18/24/3 17/16/3
f 19/18/3 18/24/3 10/1/1
f 20/19/3 19/18/3 11/4/1
f 21/20/3 20/19/3 12/6/1
f 14/10/1 22/28/3 21/20/3
f 23/21/3 22/28/3 14/10/1
f 24/22/3 23/21/3 15/12/1
f 26/23/4 25/31/4 17/16/3
f 27/25/4 26/23/4 18/24/3
f 20/19/3 28/26/4 27/25/4
f 21/20/3 29/33/4 28/26/4
f 30/27/4 29/33/4 21/20/3
f 23/21/3 31/36/4 30/27/4
f 32/29/4 31/36/4 23/21/3
f 34/30/5 33/40/5 25/31/4
f 27/25/4 35/32/5 34/30/5
f 28/26/4 36/34/5 35/32/5
f 29/33/4 37/35/5 36/34/5
f 30/27/4 38/37/5 37/35/5
f 31/36/4 39/38/5 38/37/5
f 32/29/4 40/45/5 39/38/5
f 34/30/5 42/47/6 41/39/6
f 43/41/6 42/47/6 34/30/5
f 36/34/5 44/50/6 43/41/6
f 45/42/6 44/50/6 36/34/5
f 46/43/6 45/42/6 37/35/5
f 47/44/6 46/43/6 38/37/5
f 40/45/5 48/55/6 47/44/6
f 50/46/7 49/57/7 41/39/6
f 51/48/7 50/46/7 42/47/6
f 52/49/7 51/48/7 43/41/6
f 53/51/7 52/49/7 44/50/6
f 54/52/7 53/51/7 45/42/6
f 55/53/7 54/52/7 46/43/6
f 56/54/7 55/53/7 47/44/6
f 58/56/8 57/65/8 49/57/7
f 59/58/8 58/56/8 50/46/7
f 60/59/9 59/58/8 51/48/7
f 61/60/8 60/59/9 52/49/7
f 62/61/8 61/60/8 53/51/7
f 63/62/8 62/61/8 54/52/7
f 64/63/9 63/62/8 55/53/7
f 66/64/10 65/133/10 57/65/8
f 67/66/10 66/64/10 58/56/8
f 68/67/10 67/66/10 59/58/8
f 69/68/10 68/67/10 60/59/9
f 62/61/8 70/69/10 69/68/10
f 63/62/8 71/70/10 70/69/10
f 64/63/9 72/134/10 71/70/10
f 74/71/11 73/85/11 65/72/10
f 67/74/10 75/87/11 74/71/11
f 76/75/11 75/87/11 67/74/10
f 77/77/11 76/75/11 68/76/10
f 78/79/11 77/77/11 69/78/10
f 71/81/10 79/83/11 78/79/11
f 72/82/10 80/92/11 79/83/11
f 82/84/12 81/94/12 73/85/11
f 83/86/12 82/84/12 74/71/11
f 84/88/12 83/86/12 75/87/11
f 85/89/12 84/88/12 76/75/11
f 86/90/12 85/89/12 77/77/11
f 87/91/12 86/90/12 78/79/11
f 80/92/11 88/101/12 87/91/12
f 90/93/13 89/103/13 81/94/12
f 91/95/13 90/93/13 82/84/12
f 92/96/13 91/95/13 83/86/12
f 93/97/13 92/96/13 84/88/12
f 94/98/13 93/97/13 85/89/12
f 95/99/13 94/98/13 86/90/12
f 96/100/13 95/99/13 87/91/12
f 98/102/14 97/110/14 89/103/13
f 91/95/13 99/104/14 98/102/14
f 92/96/13 100/105/14 99/104/14
f 93/97/13 101/106/14 100/105/14
f 94/98/13 102/107/14 101/106/14
f 95/99/13 103/116/14 102/107/14
f 104/108/14 103/116/14 95/99/13
f 106/109/15 105/118/15 97/110/14
f 107/111/15 106/109/15 98/102/14
f 108/112/15 107/111/15 99/104/14
f 109/113/15 108/112/15 100/105/14
f 110/114/15 109/113/15 101/106/14
f 111/115/15 110/114/15 102/107/14
f 104/108/14 112/123/15 111/115/15
f 114/117/16 113/126/16 105/118/15
f 107/111/15 115/119/16 114/117/16
f 108/112/15 116/120/16 115/119/16
f 109/113/15 117/121/16 116/120/16
f 110/114/15 118/122/16 117/121/16
f 111/115/15 119/124/16 118/122/16
f 112/123/15 120/132/16 119/124/16
f 114/117/16 122/127/17 121/125/17
f 115/119/16 123/128/17 122/127/17
f 116/120/16 124/129/17 123/128/17
f 117/121/16 125/130/17 124/129/17
f 118/122/16 126/135/17 125/130/17
f 127/131/17 126/135/17 118/122/16
f 120/132/16 128/136/17 127/131/17
o Plane
v -2.400295 0.015455 1.287045
v 2.452037 0.015455 1.287045
v -2.400295 0.015455 -1.442311
v 2.452037 0.015455 -1.442311
vn 0.0000 1.0000 0.0000
usemtl Material.002
s off
f 130//18 131//18 129//18
f 130//18 132//18 131//18
o Plane.001_Plane.002
v -2.400295 1.472318 1.275753
v 2.452037 1.472318 1.275753
v -2.400295 0.001640 1.275753
v 2.452037 0.001640 1.275753
vn 0.0000 0.0000 1.0000
usemtl Material.002
s off
f 134//19 133//19 135//19
f 134//19 135//19 136//19
o Plane.002_Plane.003
v -2.400295 1.472318 -1.438196
v 2.452037 1.472318 -1.438196
v -2.400295 0.001640 -1.438196
v 2.452037 0.001640 -1.438196
vn 0.0000 0.0000 1.0000
usemtl Material.002
s off
f 138//20 137//20 139//20
f 138//20 139//20 140//20
o Plane.003_Plane.004
v -2.378074 1.475414 1.281658
v -2.378074 -0.059940 1.281658
v -2.378074 1.475414 -1.447698
v -2.378074 -0.059940 -1.447698
vn 1.0000 0.0000 0.0000
usemtl Material.002
s off
f 142//21 143//21 141//21
f 142//21 144//21 143//21
